<svg width="390" height="331" viewBox="0 0 360 331" fill="none" xmlns="http://www.w3.org/2000/svg">
<g opacity="0.2" clip-path="url(#clip0_9_3309)">
<path opacity="0.5" d="M195.721 253.312C189.707 250.134 166.489 236.428 159.926 232.821C157.099 231.258 153.398 232.03 150.382 233.765L118.271 252.35C116.335 253.466 114.844 255.064 113.867 256.885C112.788 258.654 112.154 260.749 112.154 262.982V300.306C112.154 303.535 113.456 306.455 115.564 308.551C117.671 310.646 150.759 329.626 153.518 330.45C156.465 331.326 159.755 331.034 162.634 329.368L194.745 310.784C196.681 309.667 198.172 308.07 199.148 306.249C200.228 304.48 200.862 302.384 200.862 300.151V262.982C200.862 258.946 199.645 255.665 195.721 253.312ZM185.098 255.699C186.126 255.613 187.137 255.854 188.045 256.318C189.039 256.816 190.615 257.692 192.089 258.791C192.449 259.066 192.774 259.358 193.048 259.701C195.996 263.411 190.529 266.675 190.529 266.675L159.309 284.641C156.277 286.101 153.415 284.676 153.415 284.676L147.418 281.447C147.418 281.447 147.418 279.574 147.418 278.973C147.486 275.452 152.181 273.545 152.181 273.545C152.181 273.545 170.413 263.205 179.923 257.486C182.082 256.197 183.864 255.785 185.098 255.682V255.699ZM126.582 271.622V308.259C124.131 307.177 120.293 304.188 120.293 304.188C119.282 303.381 118.58 302.213 118.58 300.718L118.751 264.236C118.768 261.127 119.865 259.925 120.173 259.547C120.79 258.379 123.703 256.764 123.703 256.764L153.278 239.811C154.289 239.21 155.111 238.764 156.431 238.764C157.459 238.764 158.384 239.021 159.052 239.433L164.022 242.525C164.022 242.525 136.863 258.173 132.099 261.076C126.239 264.648 126.582 271.639 126.582 271.639V271.622ZM140.735 280.038V316.091C138.285 315.009 134.447 312.02 134.447 312.02C133.436 311.213 132.733 310.045 132.733 308.551L132.904 272.652C132.922 269.543 134.018 268.341 134.327 267.963C134.943 266.795 137.856 265.181 137.856 265.181L167.431 248.228C168.442 247.626 169.265 247.18 170.584 247.18C171.612 247.18 172.538 247.438 173.206 247.85L178.175 250.942C178.175 250.942 151.016 266.589 146.253 269.492C140.392 273.065 140.735 280.055 140.735 280.055V280.038ZM194.179 300.375C193.477 305.476 189.827 306.85 189.827 306.85L178.398 312.948L159.926 323.7C158.641 324.421 157.87 324.679 156.482 324.679C155.094 324.679 154.477 324.421 153.038 323.7L152.181 323.219C149.251 321.587 147.435 318.479 147.435 315.129V308.533L152.061 310.852C153.261 311.453 154.82 311.831 156.551 311.831C158.538 311.831 160.32 311.333 161.571 310.543H161.657L194.179 291.821V300.358V300.375ZM194.179 280.914C193.939 285.311 189.827 287.39 189.827 287.39L178.398 293.487L159.926 304.239C158.641 304.961 157.87 305.218 156.482 305.218C155.094 305.218 154.477 304.961 153.038 304.239L147.452 301.113V289.09L152.079 291.409C153.278 292.01 154.837 292.388 156.568 292.388C158.556 292.388 160.338 291.89 161.588 291.1H161.674L194.196 272.377V280.914H194.179Z" fill="#80CF8B"/>
<path opacity="0.5" d="M102.575 253.312C96.5611 250.134 73.3431 236.428 66.7804 232.821C63.9532 231.258 60.252 232.03 57.2363 233.765L25.1252 252.35C23.189 253.466 21.6982 255.064 20.7215 256.885C19.642 258.654 19.008 260.749 19.008 262.982V300.306C19.008 303.535 20.3103 306.455 22.4179 308.551C24.5255 310.646 57.6132 329.626 60.3719 330.45C63.3192 331.326 66.6091 331.034 69.4878 329.368L101.599 310.784C103.535 309.667 105.026 308.07 106.002 306.249C107.082 304.48 107.716 302.384 107.716 300.151V262.982C107.716 258.946 106.499 255.665 102.575 253.312ZM91.9518 255.699C92.9799 255.613 93.9908 255.854 94.899 256.318C95.8928 256.816 97.4692 257.692 98.9429 258.791C99.3027 259.066 99.6283 259.358 99.9024 259.701C102.85 263.411 97.3836 266.675 97.3836 266.675L66.1636 284.641C63.1307 286.101 60.2691 284.676 60.2691 284.676L54.2719 281.447C54.2719 281.447 54.2719 279.574 54.2719 278.973C54.3404 275.452 59.0354 273.545 59.0354 273.545C59.0354 273.545 77.2671 263.205 86.777 257.486C88.936 256.197 90.718 255.785 91.9518 255.682V255.699ZM33.4357 271.622V308.259C30.9854 307.177 27.1472 304.188 27.1472 304.188C26.1362 303.381 25.4337 302.213 25.4337 300.718L25.605 264.236C25.6221 261.127 26.7188 259.925 27.0272 259.547C27.6441 258.379 30.557 256.764 30.557 256.764L60.132 239.811C61.143 239.21 61.9655 238.764 63.2849 238.764C64.313 238.764 65.2383 239.021 65.9066 239.433L70.8757 242.525C70.8757 242.525 43.7167 258.173 38.9532 261.076C33.093 264.648 33.4357 271.639 33.4357 271.639V271.622ZM47.5892 280.038V316.091C45.1389 315.009 41.3007 312.02 41.3007 312.02C40.2897 311.213 39.5872 310.045 39.5872 308.551L39.7585 272.652C39.7757 269.543 40.8723 268.341 41.1807 267.963C41.7976 266.795 44.7105 265.181 44.7105 265.181L74.2856 248.228C75.2965 247.626 76.119 247.18 77.4384 247.18C78.4665 247.18 79.3918 247.438 80.0601 247.85L85.0292 250.942C85.0292 250.942 57.8702 266.589 53.1067 269.492C47.2465 273.065 47.5892 280.055 47.5892 280.055V280.038ZM101.033 300.375C100.331 305.476 96.681 306.85 96.681 306.85L85.252 312.948L66.7804 323.7C65.4953 324.421 64.7242 324.679 63.3363 324.679C61.9484 324.679 61.3315 324.421 59.8922 323.7L59.0354 323.219C56.1053 321.587 54.289 318.479 54.289 315.129V308.533L58.9155 310.852C60.1149 311.453 61.6742 311.831 63.4048 311.831C65.3925 311.831 67.1746 311.333 68.4254 310.543H68.5111L101.033 291.821V300.358V300.375ZM101.033 280.914C100.793 285.311 96.681 287.39 96.681 287.39L85.252 293.487L66.7804 304.239C65.4953 304.961 64.7242 305.218 63.3363 305.218C61.9484 305.218 61.3315 304.961 59.8922 304.239L54.3062 301.113V289.09L58.9326 291.409C60.1321 292.01 61.6914 292.388 63.422 292.388C65.4097 292.388 67.1917 291.89 68.4425 291.1H68.5282L101.05 272.377V280.914H101.033Z" fill="#80CF8B"/>
<path opacity="0.5" d="M10.1492 253.363C4.13483 250.186 -19.0831 236.479 -25.6458 232.872C-28.4731 231.309 -32.1742 232.082 -35.19 233.817L-67.301 252.402C-69.2373 253.518 -70.728 255.115 -71.7047 256.936C-72.7842 258.705 -73.4182 260.801 -73.4182 263.034V300.358C-73.4182 303.587 -72.116 306.507 -70.0083 308.602C-67.9007 310.698 -34.813 329.677 -32.0543 330.502C-29.1071 331.378 -25.8172 331.086 -22.9385 329.42L9.17254 310.835C11.1088 309.719 12.5995 308.121 13.5762 306.301C14.6557 304.531 15.2897 302.436 15.2897 300.203V263.034C15.2897 258.997 14.0731 255.717 10.1492 253.363ZM-0.47448 255.751C0.553627 255.665 1.56459 255.905 2.47275 256.369C3.46658 256.867 5.043 257.743 6.51661 258.843C6.87644 259.117 7.202 259.409 7.47617 259.753C10.4234 263.463 4.95732 266.727 4.95732 266.727L-26.2627 284.693C-29.2956 286.153 -32.1571 284.727 -32.1571 284.727L-38.1544 281.498C-38.1544 281.498 -38.1544 279.626 -38.1544 279.025C-38.0858 275.504 -33.3908 273.597 -33.3908 273.597C-33.3908 273.597 -15.1592 263.257 -5.64925 257.537C-3.49023 256.249 -1.7082 255.837 -0.47448 255.734V255.751ZM-58.9905 271.673V308.31C-61.4408 307.228 -65.2791 304.239 -65.2791 304.239C-66.29 303.432 -66.9926 302.264 -66.9926 300.77L-66.8212 264.287C-66.8041 261.179 -65.7075 259.976 -65.399 259.598C-64.7822 258.43 -61.8692 256.816 -61.8692 256.816L-32.2942 239.863C-31.2832 239.262 -30.4607 238.815 -29.1413 238.815C-28.1132 238.815 -27.188 239.073 -26.5197 239.485L-21.5505 242.577C-21.5505 242.577 -48.7095 258.224 -53.4731 261.127C-59.3332 264.7 -58.9905 271.69 -58.9905 271.69V271.673ZM-44.837 280.09V316.143C-47.2873 315.06 -51.1256 312.072 -51.1256 312.072C-52.1365 311.265 -52.8391 310.097 -52.8391 308.602L-52.6677 272.704C-52.6506 269.595 -51.5539 268.393 -51.2455 268.015C-50.6286 266.847 -47.7157 265.232 -47.7157 265.232L-18.1407 248.279C-17.1297 247.678 -16.3072 247.231 -14.9878 247.231C-13.9597 247.231 -13.0344 247.489 -12.3662 247.901L-7.39703 250.993C-7.39703 250.993 -34.556 266.641 -39.3195 269.543C-45.1797 273.116 -44.837 280.107 -44.837 280.107V280.09ZM8.60709 300.426C7.90455 305.528 4.25479 306.902 4.25479 306.902L-7.17426 312.999L-25.6458 323.752C-26.9309 324.473 -27.702 324.731 -29.0899 324.731C-30.4779 324.731 -31.0947 324.473 -32.5341 323.752L-33.3908 323.271C-36.3209 321.639 -38.1372 318.53 -38.1372 315.181V308.585L-33.5108 310.904C-32.3113 311.505 -30.752 311.883 -29.0214 311.883C-27.0337 311.883 -25.2517 311.385 -24.0008 310.595H-23.9152L8.60709 291.873V300.409V300.426ZM8.60709 280.966C8.3672 285.363 4.25479 287.441 4.25479 287.441L-7.17426 293.539L-25.6458 304.291C-26.9309 305.012 -27.702 305.27 -29.0899 305.27C-30.4779 305.27 -31.0947 305.012 -32.5341 304.291L-38.1201 301.165V289.142L-33.4936 291.46C-32.2942 292.061 -30.7349 292.439 -29.0043 292.439C-27.0166 292.439 -25.2346 291.941 -23.9837 291.151H-23.898L8.62421 272.429V280.966H8.60709Z" fill="#80CF8B"/>
<path opacity="0.5" d="M148.566 172.755C142.551 169.578 119.334 155.871 112.771 152.264C109.944 150.701 106.242 151.474 103.227 153.209L71.1156 171.793C69.1793 172.91 67.6886 174.507 66.7119 176.328C65.6324 178.097 64.9984 180.193 64.9984 182.425V219.749C64.9984 222.979 66.3007 225.899 68.4083 227.994C70.5159 230.09 103.604 249.069 106.362 249.894C109.31 250.77 112.599 250.478 115.478 248.812L147.589 230.227C149.525 229.111 151.016 227.513 151.993 225.692C153.072 223.923 153.706 221.828 153.706 219.595V182.425C153.706 178.389 152.49 175.108 148.566 172.755ZM137.942 175.143C138.97 175.057 139.981 175.297 140.889 175.761C141.883 176.259 143.46 177.135 144.933 178.234C145.293 178.509 145.619 178.801 145.893 179.145C148.84 182.855 143.374 186.118 143.374 186.118L112.154 204.085C109.121 205.545 106.26 204.119 106.26 204.119L100.262 200.89C100.262 200.89 100.262 199.018 100.262 198.417C100.331 194.895 105.026 192.989 105.026 192.989C105.026 192.989 123.257 182.649 132.767 176.929C134.926 175.641 136.708 175.229 137.942 175.126V175.143ZM79.4261 191.065V227.702C76.9758 226.62 73.1375 223.631 73.1375 223.631C72.1266 222.824 71.424 221.656 71.424 220.162L71.5954 183.679C71.6125 180.57 72.7092 179.368 73.0176 178.99C73.6344 177.822 76.5474 176.208 76.5474 176.208L106.122 159.255C107.133 158.654 107.956 158.207 109.275 158.207C110.303 158.207 111.229 158.465 111.897 158.877L116.866 161.969C116.866 161.969 89.7071 177.616 84.9436 180.519C79.0834 184.092 79.4261 191.082 79.4261 191.082V191.065ZM93.5796 199.481V235.534C91.1293 234.452 87.2911 231.464 87.2911 231.464C86.2801 230.656 85.5776 229.488 85.5776 227.994L85.7489 192.096C85.766 188.987 86.8627 187.784 87.1711 187.407C87.788 186.239 90.7009 184.624 90.7009 184.624L120.276 167.671C121.287 167.07 122.109 166.623 123.429 166.623C124.457 166.623 125.382 166.881 126.05 167.293L131.02 170.385C131.02 170.385 103.861 186.032 99.0971 188.935C93.2369 192.508 93.5796 199.499 93.5796 199.499V199.481ZM147.024 219.818C146.321 224.92 142.671 226.294 142.671 226.294L131.242 232.391L112.771 243.144C111.486 243.865 110.715 244.123 109.327 244.123C107.939 244.123 107.322 243.865 105.883 243.144L105.026 242.663C102.096 241.031 100.279 237.922 100.279 234.573V227.977L104.906 230.296C106.105 230.897 107.665 231.275 109.395 231.275C111.383 231.275 113.165 230.777 114.416 229.987H114.501L147.024 211.264V219.801V219.818ZM147.024 200.357C146.784 204.755 142.671 206.833 142.671 206.833L131.242 212.93L112.771 223.683C111.486 224.404 110.715 224.662 109.327 224.662C107.939 224.662 107.322 224.404 105.883 223.683L100.297 220.557V208.533L104.923 210.852C106.122 211.453 107.682 211.831 109.412 211.831C111.4 211.831 113.182 211.333 114.433 210.543H114.519L147.041 191.821V200.357H147.024Z" fill="#80CF8B"/>
<path opacity="0.5" d="M55.4199 172.755C49.4055 169.578 26.1876 155.871 19.6249 152.264C16.7976 150.701 13.0965 151.474 10.0807 153.209L-22.0303 171.793C-23.9666 172.91 -25.4573 174.507 -26.434 176.328C-27.5135 178.097 -28.1475 180.193 -28.1475 182.425V219.749C-28.1475 222.979 -26.8453 225.899 -24.7376 227.994C-22.63 230.09 10.4577 249.069 13.2164 249.894C16.1636 250.77 19.4535 250.478 22.3322 248.812L54.4432 230.227C56.3795 229.111 57.8702 227.513 58.8469 225.692C59.9264 223.923 60.5604 221.828 60.5604 219.595V182.425C60.5604 178.389 59.3438 175.108 55.4199 172.755ZM44.7962 175.143C45.8243 175.057 46.8353 175.297 47.7434 175.761C48.7373 176.259 50.3137 177.135 51.7873 178.234C52.1471 178.509 52.4727 178.801 52.7469 179.145C55.6941 182.855 50.228 186.118 50.228 186.118L19.008 204.085C15.9751 205.545 13.1136 204.119 13.1136 204.119L7.11634 200.89C7.11634 200.89 7.11634 199.018 7.11634 198.417C7.18488 194.895 11.8799 192.989 11.8799 192.989C11.8799 192.989 30.1115 182.649 39.6214 176.929C41.7804 175.641 43.5625 175.229 44.7962 175.126V175.143ZM-13.7198 191.065V227.702C-16.1701 226.62 -20.0084 223.631 -20.0084 223.631C-21.0194 222.824 -21.7219 221.656 -21.7219 220.162L-21.5505 183.679C-21.5334 180.57 -20.4368 179.368 -20.1283 178.99C-19.5115 177.822 -16.5985 176.208 -16.5985 176.208L12.9765 159.255C13.9875 158.654 14.81 158.207 16.1293 158.207C17.1575 158.207 18.0827 158.465 18.751 158.877L23.7201 161.969C23.7201 161.969 -3.43884 177.616 -8.20237 180.519C-14.0625 184.092 -13.7198 191.082 -13.7198 191.082V191.065ZM0.433676 199.481V235.534C-2.01663 234.452 -5.85487 231.464 -5.85487 231.464C-6.86584 230.656 -7.56837 229.488 -7.56837 227.994L-7.39702 192.096C-7.37989 188.987 -6.28325 187.784 -5.97482 187.407C-5.35795 186.239 -2.44501 184.624 -2.44501 184.624L27.13 167.671C28.141 167.07 28.9635 166.623 30.2829 166.623C31.311 166.623 32.2362 166.881 32.9045 167.293L37.8737 170.385C37.8737 170.385 10.7147 186.032 5.95115 188.935C0.0909767 192.508 0.433676 199.499 0.433676 199.499V199.481ZM53.8778 219.818C53.1752 224.92 49.5255 226.294 49.5255 226.294L38.0964 232.391L19.6249 243.144C18.3398 243.865 17.5687 244.123 16.1808 244.123C14.7928 244.123 14.176 243.865 12.7366 243.144L11.8799 242.663C8.94979 241.031 7.13347 237.922 7.13347 234.573V227.977L11.7599 230.296C12.9594 230.897 14.5186 231.275 16.2493 231.275C18.2369 231.275 20.019 230.777 21.2699 229.987H21.3555L53.8778 211.264V219.801V219.818ZM53.8778 200.357C53.6379 204.755 49.5255 206.833 49.5255 206.833L38.0964 212.93L19.6249 223.683C18.3398 224.404 17.5687 224.662 16.1808 224.662C14.7928 224.662 14.176 224.404 12.7366 223.683L7.1506 220.557V208.533L11.777 210.852C12.9765 211.453 14.5358 211.831 16.2664 211.831C18.2541 211.831 20.0361 211.333 21.287 210.543H21.3727L53.8949 191.821V200.357H53.8778Z" fill="#80CF8B"/>
<path opacity="0.5" d="M382.287 253.363C376.273 250.186 353.055 236.479 346.492 232.872C343.665 231.309 339.964 232.082 336.948 233.817L304.837 252.402C302.901 253.518 301.41 255.115 300.433 256.936C299.354 258.705 298.72 260.801 298.72 263.034V300.358C298.72 303.587 300.022 306.507 302.13 308.602C304.237 310.698 337.325 329.677 340.084 330.502C343.031 331.378 346.321 331.086 349.2 329.42L381.311 310.835C383.247 309.719 384.738 308.121 385.714 306.301C386.794 304.531 387.428 302.436 387.428 300.203V263.034C387.428 258.997 386.211 255.717 382.287 253.363ZM371.664 255.751C372.692 255.665 373.703 255.905 374.611 256.369C375.605 256.867 377.181 257.743 378.655 258.843C379.015 259.117 379.34 259.409 379.614 259.753C382.562 263.463 377.095 266.727 377.095 266.727L345.875 284.693C342.843 286.153 339.981 284.727 339.981 284.727L333.984 281.498C333.984 281.498 333.984 279.626 333.984 279.025C334.052 275.504 338.747 273.597 338.747 273.597C338.747 273.597 356.979 263.257 366.489 257.537C368.648 256.249 370.43 255.837 371.664 255.734V255.751ZM313.148 271.673V308.31C310.697 307.228 306.859 304.239 306.859 304.239C305.848 303.432 305.146 302.264 305.146 300.77L305.317 264.287C305.334 261.179 306.431 259.976 306.739 259.598C307.356 258.43 310.269 256.816 310.269 256.816L339.844 239.863C340.855 239.262 341.677 238.815 342.997 238.815C344.025 238.815 344.95 239.073 345.618 239.485L350.588 242.577C350.588 242.577 323.429 258.224 318.665 261.127C312.805 264.7 313.148 271.69 313.148 271.69V271.673ZM327.301 280.09V316.143C324.851 315.06 321.013 312.072 321.013 312.072C320.002 311.265 319.299 310.097 319.299 308.602L319.47 272.704C319.488 269.595 320.584 268.393 320.893 268.015C321.509 266.847 324.422 265.232 324.422 265.232L353.997 248.279C355.008 247.678 355.831 247.231 357.15 247.231C358.178 247.231 359.104 247.489 359.772 247.901L364.741 250.993C364.741 250.993 337.582 266.641 332.819 269.543C326.958 273.116 327.301 280.107 327.301 280.107V280.09ZM380.745 300.426C380.043 305.528 376.393 306.902 376.393 306.902L364.964 312.999L346.492 323.752C345.207 324.473 344.436 324.731 343.048 324.731C341.66 324.731 341.043 324.473 339.604 323.752L338.747 323.271C335.817 321.639 334.001 318.53 334.001 315.181V308.585L338.627 310.904C339.827 311.505 341.386 311.883 343.117 311.883C345.104 311.883 346.886 311.385 348.137 310.595H348.223L380.745 291.873V300.409V300.426ZM380.745 280.966C380.505 285.363 376.393 287.441 376.393 287.441L364.964 293.539L346.492 304.291C345.207 305.012 344.436 305.27 343.048 305.27C341.66 305.27 341.043 305.012 339.604 304.291L334.018 301.165V289.142L338.644 291.46C339.844 292.061 341.403 292.439 343.134 292.439C345.122 292.439 346.904 291.941 348.154 291.151H348.24L380.762 272.429V280.966H380.745Z" fill="#80CF8B"/>
<path opacity="0.5" d="M289.878 253.363C283.864 250.186 260.646 236.479 254.083 232.872C251.256 231.309 247.555 232.082 244.539 233.817L212.428 252.402C210.492 253.518 209.001 255.115 208.024 256.936C206.945 258.705 206.311 260.801 206.311 263.034V300.358C206.311 303.587 207.613 306.507 209.721 308.602C211.828 310.698 244.916 329.677 247.675 330.502C250.622 331.378 253.912 331.086 256.791 329.42L288.902 310.835C290.838 309.719 292.329 308.121 293.305 306.301C294.385 304.531 295.019 302.436 295.019 300.203V263.034C295.019 258.997 293.802 255.717 289.878 253.363ZM279.255 255.751C280.283 255.665 281.294 255.905 282.202 256.369C283.196 256.867 284.772 257.743 286.246 258.843C286.605 259.117 286.931 259.409 287.205 259.753C290.152 263.463 284.686 266.727 284.686 266.727L253.466 284.693C250.434 286.153 247.572 284.727 247.572 284.727L241.575 281.498C241.575 281.498 241.575 279.626 241.575 279.025C241.643 275.504 246.338 273.597 246.338 273.597C246.338 273.597 264.57 263.257 274.08 257.537C276.239 256.249 278.021 255.837 279.255 255.734V255.751ZM220.739 271.673V308.31C218.288 307.228 214.45 304.239 214.45 304.239C213.439 303.432 212.736 302.264 212.736 300.77L212.908 264.287C212.925 261.179 214.022 259.976 214.33 259.598C214.947 258.43 217.86 256.816 217.86 256.816L247.435 239.863C248.446 239.262 249.268 238.815 250.588 238.815C251.616 238.815 252.541 239.073 253.209 239.485L258.179 242.577C258.179 242.577 231.02 258.224 226.256 261.127C220.396 264.7 220.739 271.69 220.739 271.69V271.673ZM234.892 280.09V316.143C232.442 315.06 228.603 312.072 228.603 312.072C227.593 311.265 226.89 310.097 226.89 308.602L227.061 272.704C227.078 269.595 228.175 268.393 228.484 268.015C229.1 266.847 232.013 265.232 232.013 265.232L261.588 248.279C262.599 247.678 263.422 247.231 264.741 247.231C265.769 247.231 266.695 247.489 267.363 247.901L272.332 250.993C272.332 250.993 245.173 266.641 240.409 269.543C234.549 273.116 234.892 280.107 234.892 280.107V280.09ZM288.336 300.426C287.634 305.528 283.984 306.902 283.984 306.902L272.555 312.999L254.083 323.752C252.798 324.473 252.027 324.731 250.639 324.731C249.251 324.731 248.634 324.473 247.195 323.752L246.338 323.271C243.408 321.639 241.592 318.53 241.592 315.181V308.585L246.218 310.904C247.418 311.505 248.977 311.883 250.708 311.883C252.695 311.883 254.477 311.385 255.728 310.595H255.814L288.336 291.873V300.409V300.426ZM288.336 280.966C288.096 285.363 283.984 287.441 283.984 287.441L272.555 293.539L254.083 304.291C252.798 305.012 252.027 305.27 250.639 305.27C249.251 305.27 248.634 305.012 247.195 304.291L241.609 301.165V289.142L246.235 291.46C247.435 292.061 248.994 292.439 250.725 292.439C252.712 292.439 254.494 291.941 255.745 291.151H255.831L288.353 272.429V280.966H288.336Z" fill="#80CF8B"/>
<path opacity="0.5" d="M427.558 172.755C421.544 169.578 398.326 155.871 391.763 152.264C388.936 150.701 385.235 151.474 382.219 153.209L350.108 171.793C348.172 172.91 346.681 174.507 345.704 176.328C344.625 178.097 343.991 180.193 343.991 182.425V219.749C343.991 222.979 345.293 225.899 347.4 227.994C349.508 230.09 382.596 249.069 385.355 249.894C388.302 250.77 391.592 250.478 394.47 248.812L426.581 230.227C428.518 229.111 430.008 227.513 430.985 225.692C432.065 223.923 432.699 221.828 432.699 219.595V182.425C432.699 178.389 431.482 175.108 427.558 172.755ZM416.934 175.143C417.962 175.057 418.973 175.297 419.882 175.761C420.875 176.259 422.452 177.135 423.925 178.234C424.285 178.509 424.611 178.801 424.885 179.145C427.832 182.855 422.366 186.118 422.366 186.118L391.146 204.085C388.113 205.545 385.252 204.119 385.252 204.119L379.254 200.89C379.254 200.89 379.254 199.018 379.254 198.417C379.323 194.895 384.018 192.989 384.018 192.989C384.018 192.989 402.25 182.649 411.76 176.929C413.919 175.641 415.701 175.229 416.934 175.126V175.143ZM358.418 191.065V227.702C355.968 226.62 352.13 223.631 352.13 223.631C351.119 222.824 350.416 221.656 350.416 220.162L350.588 183.679C350.605 180.57 351.701 179.368 352.01 178.99C352.627 177.822 355.54 176.208 355.54 176.208L385.115 159.255C386.126 158.654 386.948 158.207 388.267 158.207C389.296 158.207 390.221 158.465 390.889 158.877L395.858 161.969C395.858 161.969 368.699 177.616 363.936 180.519C358.076 184.092 358.418 191.082 358.418 191.082V191.065ZM372.572 199.481V235.534C370.121 234.452 366.283 231.464 366.283 231.464C365.272 230.656 364.57 229.488 364.57 227.994L364.741 192.096C364.758 188.987 365.855 187.784 366.163 187.407C366.78 186.239 369.693 184.624 369.693 184.624L399.268 167.671C400.279 167.07 401.102 166.623 402.421 166.623C403.449 166.623 404.374 166.881 405.043 167.293L410.012 170.385C410.012 170.385 382.853 186.032 378.089 188.935C372.229 192.508 372.572 199.499 372.572 199.499V199.481ZM426.016 219.818C425.313 224.92 421.664 226.294 421.664 226.294L410.235 232.391L391.763 243.144C390.478 243.865 389.707 244.123 388.319 244.123C386.931 244.123 386.314 243.865 384.875 243.144L384.018 242.663C381.088 241.031 379.272 237.922 379.272 234.573V227.977L383.898 230.296C385.098 230.897 386.657 231.275 388.387 231.275C390.375 231.275 392.157 230.777 393.408 229.987H393.494L426.016 211.264V219.801V219.818ZM426.016 200.357C425.776 204.755 421.664 206.833 421.664 206.833L410.235 212.93L391.763 223.683C390.478 224.404 389.707 224.662 388.319 224.662C386.931 224.662 386.314 224.404 384.875 223.683L379.289 220.557V208.533L383.915 210.852C385.115 211.453 386.674 211.831 388.405 211.831C390.392 211.831 392.174 211.333 393.425 210.543H393.511L426.033 191.821V200.357H426.016Z" fill="#80CF8B"/>
<path opacity="0.5" d="M335.149 172.79C329.135 169.612 305.917 155.905 299.354 152.298C296.527 150.735 292.826 151.508 289.81 153.243L257.699 171.828C255.762 172.944 254.272 174.542 253.295 176.362C252.216 178.131 251.582 180.227 251.582 182.46V219.784C251.582 223.013 252.884 225.933 254.991 228.028C257.099 230.124 290.187 249.104 292.945 249.928C295.893 250.804 299.183 250.512 302.061 248.846L334.172 230.261C336.109 229.145 337.599 227.547 338.576 225.727C339.655 223.958 340.289 221.862 340.289 219.629V182.46C340.289 178.423 339.073 175.143 335.149 172.79ZM324.525 175.177C325.553 175.091 326.564 175.332 327.473 175.795C328.466 176.294 330.043 177.17 331.516 178.269C331.876 178.544 332.202 178.836 332.476 179.179C335.423 182.889 329.957 186.153 329.957 186.153L298.737 204.119C295.704 205.579 292.843 204.153 292.843 204.153L286.845 200.924C286.845 200.924 286.845 199.052 286.845 198.451C286.914 194.93 291.609 193.023 291.609 193.023C291.609 193.023 309.841 182.683 319.35 176.963C321.509 175.675 323.292 175.263 324.525 175.16V175.177ZM266.009 191.099V227.736C263.559 226.654 259.721 223.666 259.721 223.666C258.71 222.858 258.007 221.69 258.007 220.196L258.179 183.714C258.196 180.605 259.292 179.402 259.601 179.025C260.218 177.857 263.131 176.242 263.131 176.242L292.706 159.289C293.717 158.688 294.539 158.241 295.858 158.241C296.887 158.241 297.812 158.499 298.48 158.911L303.449 162.003C303.449 162.003 276.29 177.65 271.527 180.553C265.666 184.126 266.009 191.117 266.009 191.117V191.099ZM280.163 199.516V235.569C277.712 234.487 273.874 231.498 273.874 231.498C272.863 230.691 272.161 229.523 272.161 228.028L272.332 192.13C272.349 189.021 273.446 187.819 273.754 187.441C274.371 186.273 277.284 184.658 277.284 184.658L306.859 167.705C307.87 167.104 308.693 166.658 310.012 166.658C311.04 166.658 311.965 166.915 312.634 167.328L317.603 170.419C317.603 170.419 290.444 186.067 285.68 188.97C279.82 192.542 280.163 199.533 280.163 199.533V199.516ZM333.607 219.853C332.904 224.954 329.255 226.328 329.255 226.328L317.826 232.426L299.354 243.178C298.069 243.899 297.298 244.157 295.91 244.157C294.522 244.157 293.905 243.899 292.466 243.178L291.609 242.697C288.679 241.065 286.863 237.956 286.863 234.607V228.011L291.489 230.33C292.688 230.931 294.248 231.309 295.978 231.309C297.966 231.309 299.748 230.811 300.999 230.021H301.085L333.607 211.299V219.835V219.853ZM333.607 200.392C333.367 204.789 329.255 206.867 329.255 206.867L317.826 212.965L299.354 223.717C298.069 224.439 297.298 224.696 295.91 224.696C294.522 224.696 293.905 224.439 292.466 223.717L286.88 220.591V208.568L291.506 210.887C292.706 211.488 294.265 211.866 295.995 211.866C297.983 211.866 299.765 211.367 301.016 210.577H301.102L333.624 191.855V200.392H333.607Z" fill="#80CF8B"/>
<path opacity="0.5" d="M242.74 172.79C236.725 169.612 213.508 155.905 206.945 152.298C204.118 150.735 200.416 151.508 197.401 153.243L165.29 171.828C163.353 172.944 161.863 174.542 160.886 176.362C159.806 178.131 159.172 180.227 159.172 182.46V219.784C159.172 223.013 160.475 225.933 162.582 228.028C164.69 230.124 197.778 249.104 200.536 249.928C203.484 250.804 206.773 250.512 209.652 248.846L241.763 230.261C243.699 229.145 245.19 227.547 246.167 225.727C247.246 223.958 247.88 221.862 247.88 219.629V182.46C247.88 178.423 246.664 175.143 242.74 172.79ZM232.116 175.177C233.144 175.091 234.155 175.332 235.063 175.795C236.057 176.294 237.634 177.17 239.107 178.269C239.467 178.544 239.793 178.836 240.067 179.179C243.014 182.889 237.548 186.153 237.548 186.153L206.328 204.119C203.295 205.579 200.433 204.153 200.433 204.153L194.436 200.924C194.436 200.924 194.436 199.052 194.436 198.451C194.505 194.93 199.2 193.023 199.2 193.023C199.2 193.023 217.431 182.683 226.941 176.963C229.1 175.675 230.882 175.263 232.116 175.16V175.177ZM173.6 191.099V227.736C171.15 226.654 167.312 223.666 167.312 223.666C166.301 222.858 165.598 221.69 165.598 220.196L165.769 183.714C165.787 180.605 166.883 179.402 167.192 179.025C167.808 177.857 170.721 176.242 170.721 176.242L200.296 159.289C201.307 158.688 202.13 158.241 203.449 158.241C204.477 158.241 205.403 158.499 206.071 158.911L211.04 162.003C211.04 162.003 183.881 177.65 179.118 180.553C173.257 184.126 173.6 191.117 173.6 191.117V191.099ZM187.754 199.516V235.569C185.303 234.487 181.465 231.498 181.465 231.498C180.454 230.691 179.752 229.523 179.752 228.028L179.923 192.13C179.94 189.021 181.037 187.819 181.345 187.441C181.962 186.273 184.875 184.658 184.875 184.658L214.45 167.705C215.461 167.104 216.283 166.658 217.603 166.658C218.631 166.658 219.556 166.915 220.224 167.328L225.194 170.419C225.194 170.419 198.035 186.067 193.271 188.97C187.411 192.542 187.754 199.533 187.754 199.533V199.516ZM241.198 219.853C240.495 224.954 236.845 226.328 236.845 226.328L225.416 232.426L206.945 243.178C205.66 243.899 204.889 244.157 203.501 244.157C202.113 244.157 201.496 243.899 200.057 243.178L199.2 242.697C196.27 241.065 194.453 237.956 194.453 234.607V228.011L199.08 230.33C200.279 230.931 201.839 231.309 203.569 231.309C205.557 231.309 207.339 230.811 208.59 230.021H208.675L241.198 211.299V219.835V219.853ZM241.198 200.392C240.958 204.789 236.845 206.867 236.845 206.867L225.416 212.965L206.945 223.717C205.66 224.439 204.889 224.696 203.501 224.696C202.113 224.696 201.496 224.439 200.057 223.717L194.471 220.591V208.568L199.097 210.887C200.296 211.488 201.856 211.866 203.586 211.866C205.574 211.866 207.356 211.367 208.607 210.577H208.693L241.215 191.855V200.392H241.198Z" fill="#80CF8B"/>
<path opacity="0.5" d="M195.721 91.9067C189.707 88.7291 166.489 75.0224 159.926 71.4154C157.099 69.8524 153.398 70.6253 150.382 72.3601L118.271 90.9448C116.335 92.0613 114.844 93.6586 113.867 95.4793C112.788 97.2485 112.154 99.344 112.154 101.577V138.901C112.154 142.13 113.456 145.05 115.564 147.145C117.671 149.241 150.759 168.221 153.518 169.045C156.465 169.921 159.755 169.629 162.634 167.963L194.745 149.378C196.681 148.262 198.172 146.665 199.148 144.844C200.228 143.075 200.862 140.979 200.862 138.746V101.577C200.862 97.5405 199.645 94.2598 195.721 91.9067ZM185.098 94.2942C186.126 94.2083 187.137 94.4488 188.045 94.9125C189.039 95.4106 190.615 96.2866 192.089 97.3859C192.449 97.6607 192.774 97.9527 193.048 98.2962C195.996 102.006 190.529 105.27 190.529 105.27L159.309 123.236C156.277 124.696 153.415 123.27 153.415 123.27L147.418 120.041C147.418 120.041 147.418 118.169 147.418 117.568C147.486 114.047 152.181 112.14 152.181 112.14C152.181 112.14 170.413 101.8 179.923 96.0805C182.082 94.7923 183.864 94.38 185.098 94.277V94.2942ZM126.582 110.217V146.853C124.131 145.771 120.293 142.783 120.293 142.783C119.282 141.975 118.58 140.807 118.58 139.313L118.751 102.831C118.768 99.7219 119.865 98.5195 120.173 98.1416C120.79 96.9737 123.703 95.3591 123.703 95.3591L153.278 78.4061C154.289 77.805 155.111 77.3584 156.431 77.3584C157.459 77.3584 158.384 77.616 159.052 78.0283L164.022 81.12C164.022 81.12 136.863 96.7675 132.099 99.6703C126.239 103.243 126.582 110.234 126.582 110.234V110.217ZM140.735 118.633V154.686C138.285 153.604 134.447 150.615 134.447 150.615C133.436 149.808 132.733 148.64 132.733 147.145L132.904 111.247C132.922 108.138 134.018 106.936 134.327 106.558C134.943 105.39 137.856 103.775 137.856 103.775L167.431 86.8225C168.442 86.2213 169.265 85.7747 170.584 85.7747C171.612 85.7747 172.538 86.0324 173.206 86.4446L178.175 89.5363C178.175 89.5363 151.016 105.184 146.253 108.087C140.392 111.659 140.735 118.65 140.735 118.65V118.633ZM194.179 138.97C193.477 144.071 189.827 145.445 189.827 145.445L178.398 151.543L159.926 162.295C158.641 163.016 157.87 163.274 156.482 163.274C155.094 163.274 154.477 163.016 153.038 162.295L152.181 161.814C149.251 160.182 147.435 157.073 147.435 153.724V147.128L152.061 149.447C153.261 150.048 154.82 150.426 156.551 150.426C158.538 150.426 160.32 149.928 161.571 149.138H161.657L194.179 130.416V138.952V138.97ZM194.179 119.509C193.939 123.906 189.827 125.984 189.827 125.984L178.398 132.082L159.926 142.834C158.641 143.556 157.87 143.813 156.482 143.813C155.094 143.813 154.477 143.556 153.038 142.834L147.452 139.708V127.685L152.079 130.004C153.278 130.605 154.837 130.983 156.568 130.983C158.556 130.983 160.338 130.485 161.588 129.694H161.674L194.196 110.972V119.509H194.179Z" fill="#80CF8B"/>
<path opacity="0.5" d="M102.575 91.9067C96.5611 88.7291 73.3431 75.0224 66.7804 71.4154C63.9532 69.8524 60.252 70.6253 57.2363 72.3601L25.1252 90.9448C23.189 92.0613 21.6982 93.6586 20.7215 95.4793C19.642 97.2485 19.008 99.344 19.008 101.577V138.901C19.008 142.13 20.3103 145.05 22.4179 147.145C24.5255 149.241 57.6132 168.221 60.3719 169.045C63.3192 169.921 66.6091 169.629 69.4878 167.963L101.599 149.378C103.535 148.262 105.026 146.665 106.002 144.844C107.082 143.075 107.716 140.979 107.716 138.746V101.577C107.716 97.5405 106.499 94.2598 102.575 91.9067ZM91.9518 94.2942C92.9799 94.2083 93.9908 94.4488 94.899 94.9125C95.8928 95.4106 97.4692 96.2866 98.9429 97.3859C99.3027 97.6607 99.6283 97.9527 99.9024 98.2962C102.85 102.006 97.3836 105.27 97.3836 105.27L66.1636 123.236C63.1307 124.696 60.2691 123.27 60.2691 123.27L54.2719 120.041C54.2719 120.041 54.2719 118.169 54.2719 117.568C54.3404 114.047 59.0354 112.14 59.0354 112.14C59.0354 112.14 77.2671 101.8 86.777 96.0805C88.936 94.7923 90.718 94.38 91.9518 94.277V94.2942ZM33.4357 110.217V146.853C30.9854 145.771 27.1472 142.783 27.1472 142.783C26.1362 141.975 25.4337 140.807 25.4337 139.313L25.605 102.831C25.6221 99.7219 26.7188 98.5195 27.0272 98.1416C27.6441 96.9737 30.557 95.3591 30.557 95.3591L60.132 78.4061C61.143 77.805 61.9655 77.3584 63.2849 77.3584C64.313 77.3584 65.2383 77.616 65.9066 78.0283L70.8757 81.12C70.8757 81.12 43.7167 96.7675 38.9532 99.6703C33.093 103.243 33.4357 110.234 33.4357 110.234V110.217ZM47.5892 118.633V154.686C45.1389 153.604 41.3007 150.615 41.3007 150.615C40.2897 149.808 39.5872 148.64 39.5872 147.145L39.7585 111.247C39.7757 108.138 40.8723 106.936 41.1807 106.558C41.7976 105.39 44.7105 103.775 44.7105 103.775L74.2856 86.8225C75.2965 86.2213 76.119 85.7747 77.4384 85.7747C78.4665 85.7747 79.3918 86.0324 80.0601 86.4446L85.0292 89.5363C85.0292 89.5363 57.8702 105.184 53.1067 108.087C47.2465 111.659 47.5892 118.65 47.5892 118.65V118.633ZM101.033 138.97C100.331 144.071 96.681 145.445 96.681 145.445L85.252 151.543L66.7804 162.295C65.4953 163.016 64.7242 163.274 63.3363 163.274C61.9484 163.274 61.3315 163.016 59.8922 162.295L59.0354 161.814C56.1053 160.182 54.289 157.073 54.289 153.724V147.128L58.9155 149.447C60.1149 150.048 61.6742 150.426 63.4048 150.426C65.3925 150.426 67.1746 149.928 68.4254 149.138H68.5111L101.033 130.416V138.952V138.97ZM101.033 119.509C100.793 123.906 96.681 125.984 96.681 125.984L85.252 132.082L66.7804 142.834C65.4953 143.556 64.7242 143.813 63.3363 143.813C61.9484 143.813 61.3315 143.556 59.8922 142.834L54.3062 139.708V127.685L58.9326 130.004C60.1321 130.605 61.6914 130.983 63.422 130.983C65.4097 130.983 67.1917 130.485 68.4425 129.694H68.5282L101.05 110.972V119.509H101.033Z" fill="#80CF8B"/>
<path opacity="0.5" d="M10.1492 91.941C4.13483 88.7634 -19.0831 75.0568 -25.6458 71.4498C-28.4731 69.8867 -32.1742 70.6597 -35.19 72.3945L-67.301 90.9792C-69.2373 92.0956 -70.728 93.693 -71.7047 95.5137C-72.7842 97.2828 -73.4182 99.3783 -73.4182 101.611V138.935C-73.4182 142.164 -72.116 145.084 -70.0083 147.18C-67.9007 149.275 -34.813 168.255 -32.0543 169.08C-29.1071 169.956 -25.8172 169.664 -22.9385 167.997L9.17254 149.413C11.1088 148.296 12.5995 146.699 13.5762 144.878C14.6557 143.109 15.2897 141.014 15.2897 138.781V101.611C15.2897 97.5748 14.0731 94.2942 10.1492 91.941ZM-0.47448 94.3285C0.553627 94.2426 1.56459 94.4831 2.47275 94.9469C3.46658 95.445 5.043 96.321 6.51661 97.4202C6.87644 97.6951 7.202 97.9871 7.47617 98.3306C10.4234 102.041 4.95732 105.304 4.95732 105.304L-26.2627 123.27C-29.2956 124.73 -32.1571 123.305 -32.1571 123.305L-38.1544 120.076C-38.1544 120.076 -38.1544 118.203 -38.1544 117.602C-38.0858 114.081 -33.3908 112.175 -33.3908 112.175C-33.3908 112.175 -15.1592 101.835 -5.64925 96.1148C-3.49023 94.8266 -1.7082 94.4144 -0.47448 94.3113V94.3285ZM-58.9905 110.251V146.888C-61.4408 145.806 -65.2791 142.817 -65.2791 142.817C-66.29 142.01 -66.9926 140.842 -66.9926 139.347L-66.8212 102.865C-66.8041 99.7562 -65.7075 98.5539 -65.399 98.176C-64.7822 97.008 -61.8692 95.3934 -61.8692 95.3934L-32.2942 78.4405C-31.2832 77.8393 -30.4607 77.3927 -29.1413 77.3927C-28.1132 77.3927 -27.188 77.6504 -26.5197 78.0626L-21.5505 81.1543C-21.5505 81.1543 -48.7095 96.8019 -53.4731 99.7047C-59.3332 103.277 -58.9905 110.268 -58.9905 110.268V110.251ZM-44.837 118.667V154.72C-47.2873 153.638 -51.1256 150.649 -51.1256 150.649C-52.1365 149.842 -52.8391 148.674 -52.8391 147.18L-52.6677 111.281C-52.6506 108.173 -51.5539 106.97 -51.2455 106.592C-50.6286 105.424 -47.7157 103.81 -47.7157 103.81L-18.1407 86.8568C-17.1297 86.2557 -16.3072 85.8091 -14.9878 85.8091C-13.9597 85.8091 -13.0344 86.0667 -12.3662 86.479L-7.39703 89.5707C-7.39703 89.5707 -34.556 105.218 -39.3195 108.121C-45.1797 111.694 -44.837 118.684 -44.837 118.684V118.667ZM8.60709 139.004C7.90455 144.105 4.25479 145.479 4.25479 145.479L-7.17426 151.577L-25.6458 162.329C-26.9309 163.051 -27.702 163.308 -29.0899 163.308C-30.4779 163.308 -31.0947 163.051 -32.5341 162.329L-33.3908 161.848C-36.3209 160.217 -38.1372 157.108 -38.1372 153.758V147.163L-33.5108 149.481C-32.3113 150.083 -30.752 150.46 -29.0214 150.46C-27.0337 150.46 -25.2517 149.962 -24.0008 149.172H-23.9152L8.60709 130.45V138.987V139.004ZM8.60709 119.543C8.3672 123.94 4.25479 126.019 4.25479 126.019L-7.17426 132.116L-25.6458 142.869C-26.9309 143.59 -27.702 143.848 -29.0899 143.848C-30.4779 143.848 -31.0947 143.59 -32.5341 142.869L-38.1201 139.743V127.719L-33.4936 130.038C-32.2942 130.639 -30.7349 131.017 -29.0043 131.017C-27.0166 131.017 -25.2346 130.519 -23.9837 129.729H-23.898L8.62421 111.007V119.543H8.60709Z" fill="#80CF8B"/>
<path opacity="0.5" d="M148.566 11.3329C142.551 8.15529 119.334 -5.55136 112.771 -9.15837C109.944 -10.7214 106.242 -9.94848 103.227 -8.21367L71.1156 10.371C69.1793 11.4875 67.6886 13.0849 66.7119 14.9056C65.6324 16.6747 64.9984 18.7702 64.9984 21.0031V58.3271C64.9984 61.5562 66.3007 64.4762 68.4083 66.5717C70.5159 68.6672 103.604 87.647 106.362 88.4714C109.31 89.3474 112.599 89.0554 115.478 87.3893L147.589 68.8046C149.525 67.6882 151.016 66.0908 151.993 64.2701C153.072 62.5009 153.706 60.4054 153.706 58.1725V21.0031C153.706 16.9667 152.49 13.686 148.566 11.3329ZM137.942 13.7204C138.97 13.6345 139.981 13.875 140.889 14.3387C141.883 14.8368 143.46 15.7128 144.933 16.8121C145.293 17.0869 145.619 17.3789 145.893 17.7225C148.84 21.4325 143.374 24.696 143.374 24.696L112.154 42.6624C109.121 44.1223 106.26 42.6967 106.26 42.6967L100.262 39.4676C100.262 39.4676 100.262 37.5954 100.262 36.9942C100.331 33.4731 105.026 31.5665 105.026 31.5665C105.026 31.5665 123.257 21.2264 132.767 15.5067C134.926 14.2185 136.708 13.8063 137.942 13.7032V13.7204ZM79.4261 29.6428V66.2797C76.9758 65.1976 73.1375 62.2089 73.1375 62.2089C72.1266 61.4016 71.424 60.2337 71.424 58.7393L71.5954 22.257C71.6125 19.1481 72.7092 17.9457 73.0176 17.5679C73.6344 16.3999 76.5474 14.7853 76.5474 14.7853L106.122 -2.16764C107.133 -2.7688 107.956 -3.21539 109.275 -3.21539C110.303 -3.21539 111.229 -2.95774 111.897 -2.54551L116.866 0.54621C116.866 0.54621 89.7071 16.1938 84.9436 19.0966C79.0834 22.6692 79.4261 29.6599 79.4261 29.6599V29.6428ZM93.5796 38.0591V74.1121C91.1293 73.03 87.2911 70.0413 87.2911 70.0413C86.2801 69.234 85.5776 68.066 85.5776 66.5717L85.7489 30.6733C85.766 27.5644 86.8627 26.3621 87.1711 25.9842C87.788 24.8162 90.7009 23.2017 90.7009 23.2017L120.276 6.24872C121.287 5.64756 122.109 5.20097 123.429 5.20097C124.457 5.20097 125.382 5.45862 126.05 5.87085L131.02 8.96257C131.02 8.96257 103.861 24.6101 99.0971 27.5129C93.2369 31.0856 93.5796 38.0763 93.5796 38.0763V38.0591ZM147.024 58.3958C146.321 63.4972 142.671 64.8713 142.671 64.8713L131.242 70.9688L112.771 81.7212C111.486 82.4426 110.715 82.7002 109.327 82.7002C107.939 82.7002 107.322 82.4426 105.883 81.7212L105.026 81.2402C102.096 79.6085 100.279 76.4996 100.279 73.1502V66.5545L104.906 68.8733C106.105 69.4745 107.665 69.8524 109.395 69.8524C111.383 69.8524 113.165 69.3543 114.416 68.5641H114.501L147.024 49.842V58.3786V58.3958ZM147.024 38.9351C146.784 43.3322 142.671 45.4106 142.671 45.4106L131.242 51.5081L112.771 62.2605C111.486 62.9819 110.715 63.2395 109.327 63.2395C107.939 63.2395 107.322 62.9819 105.883 62.2605L100.297 59.1344V47.111L104.923 49.4298C106.122 50.031 107.682 50.4089 109.412 50.4089C111.4 50.4089 113.182 49.9107 114.433 49.1206H114.519L147.041 30.3985V38.9351H147.024Z" fill="#80CF8B"/>
<path opacity="0.5" d="M55.4199 11.3329C49.4055 8.15529 26.1876 -5.55136 19.6249 -9.15837C16.7976 -10.7214 13.0965 -9.94848 10.0807 -8.21367L-22.0303 10.371C-23.9666 11.4875 -25.4573 13.0849 -26.434 14.9056C-27.5135 16.6747 -28.1475 18.7702 -28.1475 21.0031V58.3271C-28.1475 61.5562 -26.8453 64.4762 -24.7376 66.5717C-22.63 68.6672 10.4577 87.647 13.2164 88.4714C16.1636 89.3474 19.4535 89.0554 22.3322 87.3893L54.4432 68.8046C56.3795 67.6882 57.8702 66.0908 58.8469 64.2701C59.9264 62.5009 60.5604 60.4054 60.5604 58.1725V21.0031C60.5604 16.9667 59.3438 13.686 55.4199 11.3329ZM44.7962 13.7204C45.8243 13.6345 46.8353 13.875 47.7434 14.3387C48.7373 14.8368 50.3137 15.7128 51.7873 16.8121C52.1471 17.0869 52.4727 17.3789 52.7469 17.7225C55.6941 21.4325 50.228 24.696 50.228 24.696L19.008 42.6624C15.9751 44.1223 13.1136 42.6967 13.1136 42.6967L7.11634 39.4676C7.11634 39.4676 7.11634 37.5954 7.11634 36.9942C7.18488 33.4731 11.8799 31.5665 11.8799 31.5665C11.8799 31.5665 30.1115 21.2264 39.6214 15.5067C41.7804 14.2185 43.5625 13.8063 44.7962 13.7032V13.7204ZM-13.7198 29.6428V66.2797C-16.1701 65.1976 -20.0084 62.2089 -20.0084 62.2089C-21.0194 61.4016 -21.7219 60.2337 -21.7219 58.7393L-21.5505 22.257C-21.5334 19.1481 -20.4368 17.9457 -20.1283 17.5679C-19.5115 16.3999 -16.5985 14.7853 -16.5985 14.7853L12.9765 -2.16764C13.9875 -2.7688 14.81 -3.21539 16.1293 -3.21539C17.1575 -3.21539 18.0827 -2.95774 18.751 -2.54551L23.7201 0.54621C23.7201 0.54621 -3.43884 16.1938 -8.20237 19.0966C-14.0625 22.6692 -13.7198 29.6599 -13.7198 29.6599V29.6428ZM0.433676 38.0591V74.1121C-2.01663 73.03 -5.85487 70.0413 -5.85487 70.0413C-6.86584 69.234 -7.56837 68.066 -7.56837 66.5717L-7.39702 30.6733C-7.37989 27.5644 -6.28325 26.3621 -5.97482 25.9842C-5.35795 24.8162 -2.44501 23.2017 -2.44501 23.2017L27.13 6.24872C28.141 5.64756 28.9635 5.20097 30.2829 5.20097C31.311 5.20097 32.2362 5.45862 32.9045 5.87085L37.8737 8.96257C37.8737 8.96257 10.7147 24.6101 5.95115 27.5129C0.0909767 31.0856 0.433676 38.0763 0.433676 38.0763V38.0591ZM53.8778 58.3958C53.1752 63.4972 49.5255 64.8713 49.5255 64.8713L38.0964 70.9688L19.6249 81.7212C18.3398 82.4426 17.5687 82.7002 16.1808 82.7002C14.7928 82.7002 14.176 82.4426 12.7366 81.7212L11.8799 81.2402C8.94979 79.6085 7.13347 76.4996 7.13347 73.1502V66.5545L11.7599 68.8733C12.9594 69.4745 14.5186 69.8524 16.2493 69.8524C18.2369 69.8524 20.019 69.3543 21.2699 68.5641H21.3555L53.8778 49.842V58.3786V58.3958ZM53.8778 38.9351C53.6379 43.3322 49.5255 45.4106 49.5255 45.4106L38.0964 51.5081L19.6249 62.2605C18.3398 62.9819 17.5687 63.2395 16.1808 63.2395C14.7928 63.2395 14.176 62.9819 12.7366 62.2605L7.1506 59.1344V47.111L11.777 49.4298C12.9765 50.031 14.5358 50.4089 16.2664 50.4089C18.2541 50.4089 20.0361 49.9107 21.287 49.1206H21.3727L53.8949 30.3985V38.9351H53.8778Z" fill="#80CF8B"/>
<path opacity="0.5" d="M382.287 91.941C376.273 88.7634 353.055 75.0568 346.492 71.4498C343.665 69.8867 339.964 70.6597 336.948 72.3945L304.837 90.9792C302.901 92.0956 301.41 93.693 300.433 95.5137C299.354 97.2828 298.72 99.3783 298.72 101.611V138.935C298.72 142.164 300.022 145.084 302.13 147.18C304.237 149.275 337.325 168.255 340.084 169.08C343.031 169.956 346.321 169.664 349.2 167.997L381.311 149.413C383.247 148.296 384.738 146.699 385.714 144.878C386.794 143.109 387.428 141.014 387.428 138.781V101.611C387.428 97.5748 386.211 94.2942 382.287 91.941ZM371.664 94.3285C372.692 94.2426 373.703 94.4831 374.611 94.9469C375.605 95.445 377.181 96.321 378.655 97.4202C379.015 97.6951 379.34 97.9871 379.614 98.3306C382.562 102.041 377.095 105.304 377.095 105.304L345.875 123.27C342.843 124.73 339.981 123.305 339.981 123.305L333.984 120.076C333.984 120.076 333.984 118.203 333.984 117.602C334.052 114.081 338.747 112.175 338.747 112.175C338.747 112.175 356.979 101.835 366.489 96.1148C368.648 94.8266 370.43 94.4144 371.664 94.3113V94.3285ZM313.148 110.251V146.888C310.697 145.806 306.859 142.817 306.859 142.817C305.848 142.01 305.146 140.842 305.146 139.347L305.317 102.865C305.334 99.7562 306.431 98.5539 306.739 98.176C307.356 97.008 310.269 95.3934 310.269 95.3934L339.844 78.4405C340.855 77.8393 341.677 77.3927 342.997 77.3927C344.025 77.3927 344.95 77.6504 345.618 78.0626L350.588 81.1543C350.588 81.1543 323.429 96.8019 318.665 99.7047C312.805 103.277 313.148 110.268 313.148 110.268V110.251ZM327.301 118.667V154.72C324.851 153.638 321.013 150.649 321.013 150.649C320.002 149.842 319.299 148.674 319.299 147.18L319.47 111.281C319.488 108.173 320.584 106.97 320.893 106.592C321.509 105.424 324.422 103.81 324.422 103.81L353.997 86.8568C355.008 86.2557 355.831 85.8091 357.15 85.8091C358.178 85.8091 359.104 86.0667 359.772 86.479L364.741 89.5707C364.741 89.5707 337.582 105.218 332.819 108.121C326.958 111.694 327.301 118.684 327.301 118.684V118.667ZM380.745 139.004C380.043 144.105 376.393 145.479 376.393 145.479L364.964 151.577L346.492 162.329C345.207 163.051 344.436 163.308 343.048 163.308C341.66 163.308 341.043 163.051 339.604 162.329L338.747 161.848C335.817 160.217 334.001 157.108 334.001 153.758V147.163L338.627 149.481C339.827 150.083 341.386 150.46 343.117 150.46C345.104 150.46 346.886 149.962 348.137 149.172H348.223L380.745 130.45V138.987V139.004ZM380.745 119.543C380.505 123.94 376.393 126.019 376.393 126.019L364.964 132.116L346.492 142.869C345.207 143.59 344.436 143.848 343.048 143.848C341.66 143.848 341.043 143.59 339.604 142.869L334.018 139.743V127.719L338.644 130.038C339.844 130.639 341.403 131.017 343.134 131.017C345.122 131.017 346.904 130.519 348.154 129.729H348.24L380.762 111.007V119.543H380.745Z" fill="#80CF8B"/>
<path opacity="0.5" d="M289.878 91.941C283.864 88.7634 260.646 75.0568 254.083 71.4498C251.256 69.8867 247.555 70.6597 244.539 72.3945L212.428 90.9792C210.492 92.0956 209.001 93.693 208.024 95.5137C206.945 97.2828 206.311 99.3783 206.311 101.611V138.935C206.311 142.164 207.613 145.084 209.721 147.18C211.828 149.275 244.916 168.255 247.675 169.08C250.622 169.956 253.912 169.664 256.791 167.997L288.902 149.413C290.838 148.296 292.329 146.699 293.305 144.878C294.385 143.109 295.019 141.014 295.019 138.781V101.611C295.019 97.5748 293.802 94.2942 289.878 91.941ZM279.255 94.3285C280.283 94.2426 281.294 94.4831 282.202 94.9469C283.196 95.445 284.772 96.321 286.246 97.4202C286.605 97.6951 286.931 97.9871 287.205 98.3306C290.152 102.041 284.686 105.304 284.686 105.304L253.466 123.27C250.434 124.73 247.572 123.305 247.572 123.305L241.575 120.076C241.575 120.076 241.575 118.203 241.575 117.602C241.643 114.081 246.338 112.175 246.338 112.175C246.338 112.175 264.57 101.835 274.08 96.1148C276.239 94.8266 278.021 94.4144 279.255 94.3113V94.3285ZM220.739 110.251V146.888C218.288 145.806 214.45 142.817 214.45 142.817C213.439 142.01 212.736 140.842 212.736 139.347L212.908 102.865C212.925 99.7562 214.022 98.5539 214.33 98.176C214.947 97.008 217.86 95.3934 217.86 95.3934L247.435 78.4405C248.446 77.8393 249.268 77.3927 250.588 77.3927C251.616 77.3927 252.541 77.6504 253.209 78.0626L258.179 81.1543C258.179 81.1543 231.02 96.8019 226.256 99.7047C220.396 103.277 220.739 110.268 220.739 110.268V110.251ZM234.892 118.667V154.72C232.442 153.638 228.603 150.649 228.603 150.649C227.593 149.842 226.89 148.674 226.89 147.18L227.061 111.281C227.078 108.173 228.175 106.97 228.484 106.592C229.1 105.424 232.013 103.81 232.013 103.81L261.588 86.8568C262.599 86.2557 263.422 85.8091 264.741 85.8091C265.769 85.8091 266.695 86.0667 267.363 86.479L272.332 89.5707C272.332 89.5707 245.173 105.218 240.409 108.121C234.549 111.694 234.892 118.684 234.892 118.684V118.667ZM288.336 139.004C287.634 144.105 283.984 145.479 283.984 145.479L272.555 151.577L254.083 162.329C252.798 163.051 252.027 163.308 250.639 163.308C249.251 163.308 248.634 163.051 247.195 162.329L246.338 161.848C243.408 160.217 241.592 157.108 241.592 153.758V147.163L246.218 149.481C247.418 150.083 248.977 150.46 250.708 150.46C252.695 150.46 254.477 149.962 255.728 149.172H255.814L288.336 130.45V138.987V139.004ZM288.336 119.543C288.096 123.94 283.984 126.019 283.984 126.019L272.555 132.116L254.083 142.869C252.798 143.59 252.027 143.848 250.639 143.848C249.251 143.848 248.634 143.59 247.195 142.869L241.609 139.743V127.719L246.235 130.038C247.435 130.639 248.994 131.017 250.725 131.017C252.712 131.017 254.494 130.519 255.745 129.729H255.831L288.353 111.007V119.543H288.336Z" fill="#80CF8B"/>
<path opacity="0.5" d="M427.558 11.3329C421.544 8.15529 398.326 -5.55136 391.763 -9.15837C388.936 -10.7214 385.235 -9.94848 382.219 -8.21367L350.108 10.371C348.172 11.4875 346.681 13.0849 345.704 14.9056C344.625 16.6747 343.991 18.7702 343.991 21.0031V58.3271C343.991 61.5562 345.293 64.4762 347.4 66.5717C349.508 68.6672 382.596 87.647 385.355 88.4714C388.302 89.3474 391.592 89.0554 394.47 87.3893L426.581 68.8046C428.518 67.6882 430.008 66.0908 430.985 64.2701C432.065 62.5009 432.699 60.4054 432.699 58.1725V21.0031C432.699 16.9667 431.482 13.686 427.558 11.3329ZM416.934 13.7204C417.962 13.6345 418.973 13.875 419.882 14.3387C420.875 14.8368 422.452 15.7128 423.925 16.8121C424.285 17.0869 424.611 17.3789 424.885 17.7225C427.832 21.4325 422.366 24.696 422.366 24.696L391.146 42.6624C388.113 44.1223 385.252 42.6967 385.252 42.6967L379.254 39.4676C379.254 39.4676 379.254 37.5954 379.254 36.9942C379.323 33.4731 384.018 31.5665 384.018 31.5665C384.018 31.5665 402.25 21.2264 411.76 15.5067C413.919 14.2185 415.701 13.8063 416.934 13.7032V13.7204ZM358.418 29.6428V66.2797C355.968 65.1976 352.13 62.2089 352.13 62.2089C351.119 61.4016 350.416 60.2337 350.416 58.7393L350.588 22.257C350.605 19.1481 351.701 17.9457 352.01 17.5679C352.627 16.3999 355.54 14.7853 355.54 14.7853L385.115 -2.16764C386.126 -2.7688 386.948 -3.21539 388.267 -3.21539C389.296 -3.21539 390.221 -2.95774 390.889 -2.54551L395.858 0.54621C395.858 0.54621 368.699 16.1938 363.936 19.0966C358.076 22.6692 358.418 29.6599 358.418 29.6599V29.6428ZM372.572 38.0591V74.1121C370.121 73.03 366.283 70.0413 366.283 70.0413C365.272 69.234 364.57 68.066 364.57 66.5717L364.741 30.6733C364.758 27.5644 365.855 26.3621 366.163 25.9842C366.78 24.8162 369.693 23.2017 369.693 23.2017L399.268 6.24872C400.279 5.64756 401.102 5.20097 402.421 5.20097C403.449 5.20097 404.374 5.45862 405.043 5.87085L410.012 8.96257C410.012 8.96257 382.853 24.6101 378.089 27.5129C372.229 31.0856 372.572 38.0763 372.572 38.0763V38.0591ZM426.016 58.3958C425.313 63.4972 421.664 64.8713 421.664 64.8713L410.235 70.9688L391.763 81.7212C390.478 82.4426 389.707 82.7002 388.319 82.7002C386.931 82.7002 386.314 82.4426 384.875 81.7212L384.018 81.2402C381.088 79.6085 379.272 76.4996 379.272 73.1502V66.5545L383.898 68.8733C385.098 69.4745 386.657 69.8524 388.387 69.8524C390.375 69.8524 392.157 69.3543 393.408 68.5641H393.494L426.016 49.842V58.3786V58.3958ZM426.016 38.9351C425.776 43.3322 421.664 45.4106 421.664 45.4106L410.235 51.5081L391.763 62.2605C390.478 62.9819 389.707 63.2395 388.319 63.2395C386.931 63.2395 386.314 62.9819 384.875 62.2605L379.289 59.1344V47.111L383.915 49.4298C385.115 50.031 386.674 50.4089 388.405 50.4089C390.392 50.4089 392.174 49.9107 393.425 49.1206H393.511L426.033 30.3985V38.9351H426.016Z" fill="#80CF8B"/>
<path opacity="0.5" d="M335.149 11.3844C329.135 8.20682 305.917 -5.49983 299.354 -9.10684C296.527 -10.6699 292.826 -9.89695 289.81 -8.16215L257.699 10.4226C255.762 11.539 254.272 13.1364 253.295 14.9571C252.216 16.7262 251.582 18.8217 251.582 21.0546V58.3786C251.582 61.6078 252.884 64.5277 254.991 66.6232C257.099 68.7187 290.187 87.6985 292.945 88.5229C295.893 89.3989 299.183 89.1069 302.061 87.4408L334.172 68.8561C336.109 67.7397 337.599 66.1423 338.576 64.3216C339.655 62.5525 340.289 60.457 340.289 58.224V21.0546C340.289 17.0182 339.073 13.7376 335.149 11.3844ZM324.525 13.7719C325.553 13.686 326.564 13.9265 327.473 14.3903C328.466 14.8884 330.043 15.7644 331.516 16.8636C331.876 17.1385 332.202 17.4305 332.476 17.774C335.423 21.4841 329.957 24.7475 329.957 24.7475L298.737 42.7139C295.704 44.1739 292.843 42.7482 292.843 42.7482L286.845 39.5191C286.845 39.5191 286.845 37.6469 286.845 37.0457C286.914 33.5246 291.609 31.618 291.609 31.618C291.609 31.618 309.841 21.2779 319.35 15.5582C321.509 14.27 323.292 13.8578 324.525 13.7547V13.7719ZM266.009 29.6943V66.3312C263.559 65.2491 259.721 62.2605 259.721 62.2605C258.71 61.4532 258.007 60.2852 258.007 58.7909L258.179 22.3085C258.196 19.1996 259.292 17.9973 259.601 17.6194C260.218 16.4514 263.131 14.8368 263.131 14.8368L292.706 -2.11611C293.717 -2.71728 294.539 -3.16386 295.858 -3.16386C296.887 -3.16386 297.812 -2.90621 298.48 -2.49399L303.449 0.597739C303.449 0.597739 276.29 16.2453 271.527 19.1481C265.666 22.7207 266.009 29.7115 266.009 29.7115V29.6943ZM280.163 38.1107V74.1636C277.712 73.0815 273.874 70.0928 273.874 70.0928C272.863 69.2855 272.161 68.1176 272.161 66.6232L272.332 30.7249C272.349 27.616 273.446 26.4136 273.754 26.0358C274.371 24.8678 277.284 23.2532 277.284 23.2532L306.859 6.30025C307.87 5.69908 308.693 5.2525 310.012 5.2525C311.04 5.2525 311.965 5.51015 312.634 5.92238L317.603 9.0141C317.603 9.0141 290.444 24.6617 285.68 27.5644C279.82 31.1371 280.163 38.1278 280.163 38.1278V38.1107ZM333.607 58.4473C332.904 63.5487 329.255 64.9228 329.255 64.9228L317.826 71.0203L299.354 81.7727C298.069 82.4941 297.298 82.7517 295.91 82.7517C294.522 82.7517 293.905 82.4941 292.466 81.7727L291.609 81.2917C288.679 79.66 286.863 76.5511 286.863 73.2017V66.606L291.489 68.9248C292.688 69.526 294.248 69.9039 295.978 69.9039C297.966 69.9039 299.748 69.4058 300.999 68.6157H301.085L333.607 49.8936V58.4302V58.4473ZM333.607 38.9866C333.367 43.3838 329.255 45.4621 329.255 45.4621L317.826 51.5597L299.354 62.312C298.069 63.0334 297.298 63.291 295.91 63.291C294.522 63.291 293.905 63.0334 292.466 62.312L286.88 59.1859V47.1625L291.506 49.4813C292.706 50.0825 294.265 50.4604 295.995 50.4604C297.983 50.4604 299.765 49.9623 301.016 49.1722H301.102L333.624 30.4501V38.9866H333.607Z" fill="#80CF8B"/> -->
<path opacity="0.5" d="M242.74 11.3844C236.725 8.20682 213.508 -5.49983 206.945 -9.10684C204.118 -10.6699 200.416 -9.89695 197.401 -8.16215L165.29 10.4226C163.353 11.539 161.863 13.1364 160.886 14.9571C159.806 16.7262 159.172 18.8217 159.172 21.0546V58.3786C159.172 61.6078 160.475 64.5277 162.582 66.6232C164.69 68.7187 197.778 87.6985 200.536 88.5229C203.484 89.3989 206.773 89.1069 209.652 87.4408L241.763 68.8561C243.699 67.7397 245.19 66.1423 246.167 64.3216C247.246 62.5525 247.88 60.457 247.88 58.224V21.0546C247.88 17.0182 246.664 13.7376 242.74 11.3844ZM232.116 13.7719C233.144 13.686 234.155 13.9265 235.063 14.3903C236.057 14.8884 237.634 15.7644 239.107 16.8636C239.467 17.1385 239.793 17.4305 240.067 17.774C243.014 21.4841 237.548 24.7475 237.548 24.7475L206.328 42.7139C203.295 44.1739 200.433 42.7482 200.433 42.7482L194.436 39.5191C194.436 39.5191 194.436 37.6469 194.436 37.0457C194.505 33.5246 199.2 31.618 199.2 31.618C199.2 31.618 217.431 21.2779 226.941 15.5582C229.1 14.27 230.882 13.8578 232.116 13.7547V13.7719ZM173.6 29.6943V66.3312C171.15 65.2491 167.312 62.2605 167.312 62.2605C166.301 61.4532 165.598 60.2852 165.598 58.7909L165.769 22.3085C165.787 19.1996 166.883 17.9973 167.192 17.6194C167.808 16.4514 170.721 14.8368 170.721 14.8368L200.296 -2.11611C201.307 -2.71728 202.13 -3.16386 203.449 -3.16386C204.477 -3.16386 205.403 -2.90621 206.071 -2.49399L211.04 0.597739C211.04 0.597739 183.881 16.2453 179.118 19.1481C173.257 22.7207 173.6 29.7115 173.6 29.7115V29.6943ZM187.754 38.1107V74.1636C185.303 73.0815 181.465 70.0928 181.465 70.0928C180.454 69.2855 179.752 68.1176 179.752 66.6232L179.923 30.7249C179.94 27.616 181.037 26.4136 181.345 26.0358C181.962 24.8678 184.875 23.2532 184.875 23.2532L214.45 6.30025C215.461 5.69908 216.283 5.2525 217.603 5.2525C218.631 5.2525 219.556 5.51015 220.224 5.92238L225.194 9.0141C225.194 9.0141 198.035 24.6617 193.271 27.5644C187.411 31.1371 187.754 38.1278 187.754 38.1278V38.1107ZM241.198 58.4473C240.495 63.5487 236.845 64.9228 236.845 64.9228L225.416 71.0203L206.945 81.7727C205.66 82.4941 204.889 82.7517 203.501 82.7517C202.113 82.7517 201.496 82.4941 200.057 81.7727L199.2 81.2917C196.27 79.66 194.453 76.5511 194.453 73.2017V66.606L199.08 68.9248C200.279 69.526 201.839 69.9039 203.569 69.9039C205.557 69.9039 207.339 69.4058 208.59 68.6157H208.675L241.198 49.8936V58.4302V58.4473ZM241.198 38.9866C240.958 43.3838 236.845 45.4621 236.845 45.4621L225.416 51.5597L206.945 62.312C205.66 63.0334 204.889 63.291 203.501 63.291C202.113 63.291 201.496 63.0334 200.057 62.312L194.471 59.1859V47.1625L199.097 49.4813C200.296 50.0825 201.856 50.4604 203.586 50.4604C205.574 50.4604 207.356 49.9623 208.607 49.1722H208.693L241.215 30.4501V38.9866H241.198Z" fill="#80CF8B"/>
</g> 
<defs>
<clipPath id="clip0_9_3309">
<rect width="786" height="341" fill="white" transform="translate(-213 -10)"/>
</clipPath>
</defs>
</svg>
